<?xml version="1.0" encoding="UTF-8" standalone="no"?>
<!-- Created with Inkscape (http://www.inkscape.org/) -->

<svg
   xmlns:dc="http://purl.org/dc/elements/1.1/"
   xmlns:cc="http://creativecommons.org/ns#"
   xmlns:rdf="http://www.w3.org/1999/02/22-rdf-syntax-ns#"
   xmlns:svg="http://www.w3.org/2000/svg"
   xmlns="http://www.w3.org/2000/svg"
   xmlns:sodipodi="http://sodipodi.sourceforge.net/DTD/sodipodi-0.dtd"
   xmlns:inkscape="http://www.inkscape.org/namespaces/inkscape"
   width="200mm"
   height="200mm"
   viewBox="0 0 200 200"
   version="1.1"
   id="svg11423"
   inkscape:version="0.92.4 (5da689c313, 2019-01-14)"
   sodipodi:docname="hair_curly.svg">
  <defs
     id="defs11417" />
  <sodipodi:namedview
     id="base"
     pagecolor="#ffffff"
     bordercolor="#666666"
     borderopacity="1.0"
     inkscape:pageopacity="0.0"
     inkscape:pageshadow="2"
     inkscape:zoom="0.48083261"
     inkscape:cx="138.96819"
     inkscape:cy="550.64102"
     inkscape:document-units="mm"
     inkscape:current-layer="layer1"
     showgrid="false"
     showguides="true"
     inkscape:guide-bbox="true"
     inkscape:window-width="1920"
     inkscape:window-height="1017"
     inkscape:window-x="-8"
     inkscape:window-y="-8"
     inkscape:window-maximized="1">
    <sodipodi:guide
       position="99.958803,365.62471"
       orientation="1,0"
       id="guide12010"
       inkscape:locked="false" />
    <sodipodi:guide
       position="-42.022059,0"
       orientation="0,1"
       id="guide12016"
       inkscape:locked="false" />
    <sodipodi:guide
       position="-35.796568,2.3345588"
       orientation="0,1"
       id="guide12020"
       inkscape:locked="false" />
  </sodipodi:namedview>
  <metadata
     id="metadata11420">
    <rdf:RDF>
      <cc:Work
         rdf:about="">
        <dc:format>image/svg+xml</dc:format>
        <dc:type
           rdf:resource="http://purl.org/dc/dcmitype/StillImage" />
        <dc:title></dc:title>
      </cc:Work>
    </rdf:RDF>
  </metadata>
  <g
     inkscape:label="Layer 1"
     inkscape:groupmode="layer"
     id="layer1"
     transform="translate(0,-97)">
    <path
       style="display:inline;fill:#803300;stroke:none;stroke-width:0.68245548px;stroke-linecap:butt;stroke-linejoin:miter;stroke-opacity:1"
       d="m 83.84022,265.34388 -0.130146,-12.32426 c 0,0 -5.355386,-2.85498 -7.559775,-4.72159 -3.720992,-3.15085 -7.13418,-6.82807 -9.607021,-11.0303 -1.67922,-2.85359 -2.575272,-6.12849 -3.380251,-9.34016 -0.50261,-2.00529 -0.889537,-6.13782 -0.889537,-6.13782 0,0 -2.054542,-0.0722 -2.93548,-0.53373 -1.188596,-0.62277 -2.082205,-1.74361 -2.846523,-2.84652 -0.612222,-0.88343 -1.16496,-1.87407 -1.334309,-2.93548 -0.717839,-4.49908 -0.347787,-7.03223 -0.266862,-12.5425 0.454412,-1.95359 2.218389,-3.84236 3.64711,-4.89247 1.032846,-0.74522 2.396241,-0.91497 3.469203,-1.60117 1.77197,-1.13325 3.290843,-2.63038 4.80351,-4.09188 1.328278,-1.28334 2.608816,-2.6288 3.736068,-4.09188 1.335251,-1.73305 2.465909,-3.61952 3.558151,-5.51514 0.74812,-1.29838 1.478304,-2.61611 2.045941,-4.00293 0.41208,-1.00677 0.978498,-3.11339 0.978498,-3.11339 0,0 2.414664,0.62673 3.647112,0.80059 5.491697,0.7747 11.058035,1.11091 16.603937,1.06745 8.547064,-0.067 18.104964,-6.22636 25.560224,-2.04594 4.46462,2.50346 3.85933,9.60995 6.9384,13.6989 2.41056,3.20121 5.13678,5.46252 8.6685,7.35608 0.67185,0.36022 2.73609,1.25633 3.3964,1.63729 1.41701,0.81753 2.90554,1.99233 2.96641,3.62714 0.17332,4.656 0.64869,9.21343 -0.176,13.88776 -0.1942,1.10074 -0.55012,2.23818 -1.24535,3.11338 -0.74188,0.9339 -1.83311,1.59063 -2.93549,2.04594 -0.94619,0.3908 -1.85187,1.84423 -1.85187,1.84423 0,0 -0.92633,3.13687 -1.43942,5.27209 -0.76259,3.17346 -2.44959,6.07489 -4.09189,8.89539 -1.63558,2.80895 -3.51519,5.50395 -5.69304,7.9169 -1.88577,2.08937 -3.97868,4.03573 -6.31574,5.6041 -1.50852,1.01235 -4.89245,2.40175 -4.89245,2.40175 l 0.089,12.89834 c 0,0 4.24166,0.51785 6.22678,-0.089 3.52344,-1.07712 5.65169,-5.26247 9.25121,-6.04885 2.34336,-0.51197 4.72011,0.95939 7.11632,1.06744 3.53101,0.15924 7.14698,0.19581 10.58551,-0.62269 3.04902,-0.72578 5.99052,-2.04368 8.62852,-3.73607 2.98662,-1.91603 5.63478,-4.39915 7.9169,-7.11629 1.79908,-2.14202 3.29321,-4.56837 4.4477,-7.11631 1.44408,-3.18709 2.49591,-6.59298 3.02443,-10.05181 0.40759,-2.66747 0.35017,-5.40904 0.089,-8.0948 -0.22571,-2.32097 -0.61522,-4.66202 -1.42327,-6.84946 -0.93811,-2.53948 -2.39014,-4.87869 -3.91397,-7.11632 -1.14967,-1.68821 -2.55568,-3.18916 -3.91398,-4.71456 -0.5997,-0.6735 -1.81073,-1.057 -1.86801,-1.95698 -0.0889,-1.39676 1.82272,-2.15035 2.4907,-3.38025 1.2853,-2.36654 2.30785,-4.92245 2.84653,-7.56108 0.69456,-3.40219 0.88479,-6.96323 0.44476,-10.4076 -1.6014,-8.77159 -5.89891,-15.58697 -12.72039,-20.54836 -1.83021,-1.33104 -3.68912,-2.6973 -5.78202,-3.55816 -2.05539,-0.84542 -4.75655,-0.1259 -6.49364,-1.51222 -1.85536,-1.48069 -1.77676,-4.443 -3.11339,-6.40468 -1.70154,-2.49722 -3.76282,-4.8032 -6.13782,-6.67155 -2.21148,-1.73969 -4.79461,-2.98889 -7.38316,-4.09188 -1.94136,-0.82722 -3.97812,-1.46168 -6.04888,-1.86803 -1.98624,-0.38976 -4.02517,-0.57535 -6.04886,-0.53372 -2.30184,0.0474 -4.62805,0.28454 -6.84946,0.88954 -1.6792,0.45733 -3.22832,1.30595 -4.80352,2.04594 -0.99624,0.46801 -1.83484,1.50005 -2.935469,1.51221 -5.95893,-2.47151 -8.324509,-4.27749 -15.033215,-4.44769 -7.447063,-0.25972 -11.435321,1.27094 -17.168109,5.15933 -7.526551,5.80624 -7.283992,10.8288 -10.852375,14.41053 -11.97786,3.66492 -21.529994,7.1012 -24.818149,18.95868 -2.07353,8.01554 -0.62267,14.22114 -0.62267,14.84381 1.566914,6.36197 5.815922,10.1658 5.51514,13.52099 -0.268828,1.99653 -2.868158,2.84742 -4.09188,4.4477 -1.724031,2.25455 -3.474278,4.57343 -4.53665,7.20527 -1.36047,3.37033 -2.001818,7.04671 -2.223849,10.67448 -0.218118,3.56382 -0.0897,7.24089 0.889539,10.67447 3.408136,10.48155 10.605975,17.55003 20.19254,22.14953 8.096983,3.14269 14.829192,0.27113 21.348944,0.71162 3.516095,0.51651 5.337392,5.04024 8.717481,6.13782 1.94609,0.63194 6.533422,-0.21116 6.533422,-0.21116 z"
       id="path11415"
       inkscape:connector-curvature="0"
       sodipodi:nodetypes="ccssscsssccssssscsssssssssscssssccsssssssssssssssccssssssssscccccccssscccsc" />
  </g>
</svg>
