<svg width="200mm" height="200mm" version="1.1" viewBox="0 0 200 200" xmlns="http://www.w3.org/2000/svg">
 <g transform="translate(0,-97)">
  <path d="m63.088 207.13s1.337-10.033 1.5365-11.03c0.05462-4.7372 0.99629-9.3926 5.0416-10.611 6.6678-2.0085 19.399-2.3158 30.202-4.1545 13.111-2.2315 15.376-18.243 25.782-13.867 8.1806 3.5166 9.4849 32.067 9.4849 32.067l0.33004 8.0256c0.39188 0.21925 5.0514-14.448 3.8248-20.811s3.0434-15.44-0.5984-18.948c-3.6418-3.508-1.5487-9.1296-6.0036-11.168-4.9598-2.2698-5.8356-6.5968-9.5536-6.5832-3.718 0.0138-12.802-7.6583-20.943-4.388-8.1413 3.2703-18.779-0.59698-21.342 1.9946-2.5633 2.5915-4.418 3.9664-5.93 4.9264-2.4611 1.5624-4.8821 1.139-7.2506 3.6222-2.3683 2.4832 1.3516 7.9104-3.6039 8.9921-3.1281 0.68293-2.7375 6.4244-3.6677 9.4052-0.9302 2.9808-0.61472 8.4594-0.14736 12.759 0.37716 3.4696 2.8383 19.77 2.8383 19.77z" fill="#9174ea" stroke-width=".54574"/>
 </g>
</svg>
